<svg xmlns="http://www.w3.org/2000/svg" viewBox="0 0 24 30" fill="none" x="0px" y="0px"><path d="M17.4621 11.8086C17.4377 11.7496 17.4015 11.6944 17.3536 11.6464L14.3536 8.64645C14.1583 8.45118 13.8417 8.45118 13.6464 8.64645C13.4512 8.84171 13.4512 9.15829 13.6464 9.35355L15.7929 11.5L7 11.5C6.72386 11.5 6.5 11.7239 6.5 12C6.5 12.2761 6.72386 12.5 7 12.5L15.7929 12.5L13.6464 14.6464C13.4512 14.8417 13.4512 15.1583 13.6464 15.3536C13.8417 15.5488 14.1583 15.5488 14.3536 15.3536L17.3536 12.3536C17.4015 12.3056 17.4377 12.2504 17.4621 12.1914C17.4861 12.1333 17.4996 12.0697 17.5 12.003L17.5 12L17.5 11.997C17.4996 11.9303 17.4861 11.8667 17.4621 11.8086Z" fill="black"/><path fill-rule="evenodd" clip-rule="evenodd" d="M12 3C7.02944 3 3 7.02944 3 12C3 16.9706 7.02944 21 12 21C16.9706 21 21 16.9706 21 12C21 7.02944 16.9706 3 12 3ZM12 2C6.47715 2 2 6.47715 2 12C2 17.5228 6.47715 22 12 22C17.5228 22 22 17.5228 22 12C22 6.47715 17.5228 2 12 2Z" fill="black"/><text x="0" y="39" fill="#000000" font-size="5px" font-weight="bold" font-family="'Helvetica Neue', Helvetica, Arial-Unicode, Arial, Sans-serif">Created by Philipp Koerner</text><text x="0" y="44" fill="#000000" font-size="5px" font-weight="bold" font-family="'Helvetica Neue', Helvetica, Arial-Unicode, Arial, Sans-serif">from the Noun Project</text></svg>